# 3ds Max Wavefront OBJ Exporter v0.97b - (c)2007 guruware
# File Created: 11.01.2015 19:52:03

mtllib hexagon.mtl

#
# object NGon01
#

v  0.8660 0.1000 -0.5000
v  -0.0000 0.1000 -1.0000
v  -0.0000 0.1100 -1.0000
v  0.8660 0.1100 -0.5000
v  -0.8660 0.1000 -0.5000
v  -0.8660 0.1100 -0.5000
v  -0.8660 0.1000 0.5000
v  -0.8660 0.1100 0.5000
v  0.0000 0.1000 1.0000
v  0.0000 0.1100 1.0000
v  0.8660 0.1000 0.5000
v  0.8660 0.1100 0.5000
# 12 vertices

vn 0.5000 0.0000 -0.8660
vn -0.5000 0.0000 -0.8660
vn -1.0000 0.0000 0.0000
vn -0.5000 0.0000 0.8660
vn 0.5000 0.0000 0.8660
vn 1.0000 0.0000 -0.0000
vn 0.0000 -1.0000 -0.0000
vn 0.0000 1.0000 -0.0000
# 8 vertex normals

vt 0.8846 0.5000 0.0005
vt 0.6923 0.8331 0.0005
vt 0.6923 0.8331 0.9995
vt 0.8846 0.5000 0.9995
vt 0.3077 0.8331 0.0005
vt 0.3077 0.8331 0.9995
vt 0.1154 0.5000 0.0005
vt 0.1154 0.5000 0.9995
vt 0.3077 0.1669 0.0005
vt 0.3077 0.1669 0.9995
vt 0.6923 0.1669 0.0005
vt 0.6923 0.1669 0.9995
# 12 texture coords

g NGon01
usemtl default
s 1
f 1/1/1 2/2/1 3/3/1 
f 1/1/1 3/3/1 4/4/1 
s 4
f 2/2/2 5/5/2 6/6/2 
f 2/2/2 6/6/2 3/3/2 
s 2
f 5/5/3 7/7/3 8/8/3 
f 5/5/3 8/8/3 6/6/3 
s 4
f 7/7/4 9/9/4 10/10/4 
f 7/7/4 10/10/4 8/8/4 
s 2
f 9/9/5 11/11/5 12/12/5 
f 9/9/5 12/12/5 10/10/5 
s 4
f 11/11/6 1/1/6 4/4/6 
f 11/11/6 4/4/6 12/12/6 
s 16
f 7/7/7 11/11/7 9/9/7 
f 5/5/7 11/11/7 7/7/7 
f 2/2/7 11/11/7 5/5/7 
f 1/1/7 11/11/7 2/2/7 
f 8/8/8 10/10/8 12/12/8 
f 6/6/8 8/8/8 12/12/8 
f 3/3/8 6/6/8 12/12/8 
f 4/4/8 3/3/8 12/12/8 
# 20 faces

